<svg xmlns="http://www.w3.org/2000/svg" width="1440" height="900"><path d="M770,398L688,492L826,593Z" fill="#9590c3" stroke="#9590c3" stroke-width="1.51"/><path d="M826,593L947,482L770,398Z" fill="#8e8ac1" stroke="#8e8ac1" stroke-width="1.51"/><path d="M688,492L579,578L826,593Z" fill="#928ec3" stroke="#928ec3" stroke-width="1.51"/><path d="M504,474L579,578L688,492Z" fill="#a19ecb" stroke="#a19ecb" stroke-width="1.51"/><path d="M770,398L690,286L688,492Z" fill="#a6a3cd" stroke="#a6a3cd" stroke-width="1.51"/><path d="M761,235L690,286L770,398Z" fill="#afaed3" stroke="#afaed3" stroke-width="1.51"/><path d="M826,593L965,665L947,482Z" fill="#7e78b7" stroke="#7e78b7" stroke-width="1.51"/><path d="M1006,742L965,665L855,827Z" fill="#6d56a6" stroke="#6d56a6" stroke-width="1.51"/><path d="M992,327L761,235L770,398Z" fill="#a6a3cf" stroke="#a6a3cf" stroke-width="1.51"/><path d="M947,482L992,327L770,398Z" fill="#9692c5" stroke="#9692c5" stroke-width="1.51"/><path d="M1147,479L992,327L947,482Z" fill="#8b7ebb" stroke="#8b7ebb" stroke-width="1.51"/><path d="M690,286L504,474L688,492Z" fill="#aaa8d0" stroke="#aaa8d0" stroke-width="1.51"/><path d="M965,665L1147,479L947,482Z" fill="#7c71b4" stroke="#7c71b4" stroke-width="1.51"/><path d="M855,827L965,665L826,593Z" fill="#7565ad" stroke="#7565ad" stroke-width="1.51"/><path d="M586,773L855,827L826,593Z" fill="#7d68af" stroke="#7d68af" stroke-width="1.51"/><path d="M579,578L586,773L826,593Z" fill="#8c80bc" stroke="#8c80bc" stroke-width="1.51"/><path d="M422,737L586,773L579,578Z" fill="#9383be" stroke="#9383be" stroke-width="1.51"/><path d="M1195,671L1147,479L965,665Z" fill="#705ca9" stroke="#705ca9" stroke-width="1.51"/><path d="M504,474L417,588L579,578Z" fill="#a4a1ce" stroke="#a4a1ce" stroke-width="1.51"/><path d="M690,286L485,265L504,474Z" fill="#babadb" stroke="#babadb" stroke-width="1.51"/><path d="M504,474L298,456L417,588Z" fill="#b1aed4" stroke="#b1aed4" stroke-width="1.51"/><path d="M472,136L485,265L690,286Z" fill="#c9cae3" stroke="#c9cae3" stroke-width="1.51"/><path d="M761,235L588,51L690,286Z" fill="#c2c1dd" stroke="#c2c1dd" stroke-width="1.51"/><path d="M1032,76L772,73L761,235Z" fill="#bab6d9" stroke="#bab6d9" stroke-width="1.51"/><path d="M1032,76L761,235L992,327Z" fill="#ada8d1" stroke="#ada8d1" stroke-width="1.51"/><path d="M586,773L752,925L855,827Z" fill="#7559a6" stroke="#7559a6" stroke-width="1.51"/><path d="M972,964L1135,852L1006,742Z" fill="#5d3a96" stroke="#5d3a96" stroke-width="1.51"/><path d="M586,773L602,990L752,925Z" fill="#785aa7" stroke="#785aa7" stroke-width="1.51"/><path d="M417,588L422,737L579,578Z" fill="#9d93c6" stroke="#9d93c6" stroke-width="1.51"/><path d="M1006,742L1195,671L965,665Z" fill="#6a51a3" stroke="#6a51a3" stroke-width="1.51"/><path d="M1135,852L1195,671L1006,742Z" fill="#613f9a" stroke="#613f9a" stroke-width="1.51"/><path d="M485,265L298,456L504,474Z" fill="#bdbcdb" stroke="#bdbcdb" stroke-width="1.51"/><path d="M588,51L472,136L690,286Z" fill="#cecce4" stroke="#cecce4" stroke-width="1.51"/><path d="M1147,479L1209,258L992,327Z" fill="#8f7fbc" stroke="#8f7fbc" stroke-width="1.51"/><path d="M1348,426L1209,258L1147,479Z" fill="#856cb3" stroke="#856cb3" stroke-width="1.51"/><path d="M1209,258L1032,76L992,327Z" fill="#a394c7" stroke="#a394c7" stroke-width="1.51"/><path d="M578,-41L588,51L772,73Z" fill="#d1cfe5" stroke="#d1cfe5" stroke-width="1.51"/><path d="M772,73L588,51L761,235Z" fill="#c7c3de" stroke="#c7c3de" stroke-width="1.51"/><path d="M299,225L298,456L485,265Z" fill="#cecee5" stroke="#cecee5" stroke-width="1.51"/><path d="M417,588L279,672L422,737Z" fill="#a394c8" stroke="#a394c8" stroke-width="1.51"/><path d="M972,964L1006,742L855,827Z" fill="#64469d" stroke="#64469d" stroke-width="1.51"/><path d="M752,925L972,964L855,827Z" fill="#66489d" stroke="#66489d" stroke-width="1.51"/><path d="M516,997L602,990L586,773Z" fill="#7f60ab" stroke="#7f60ab" stroke-width="1.51"/><path d="M752,925L812,1170L972,964Z" fill="#67499d" stroke="#67499d" stroke-width="1.51"/><path d="M1032,76L846,-32L772,73Z" fill="#bdb9da" stroke="#bdb9da" stroke-width="1.51"/><path d="M298,456L279,672L417,588Z" fill="#aeaad3" stroke="#aeaad3" stroke-width="1.51"/><path d="M422,737L516,997L586,773Z" fill="#896db3" stroke="#896db3" stroke-width="1.51"/><path d="M279,672L331,789L422,737Z" fill="#9f89c3" stroke="#9f89c3" stroke-width="1.51"/><path d="M1209,258L1209,146L1032,76Z" fill="#a590c6" stroke="#a590c6" stroke-width="1.51"/><path d="M1032,76L972,-91L846,-32Z" fill="#bbb4d8" stroke="#bbb4d8" stroke-width="1.51"/><path d="M298,456L89,639L279,672Z" fill="#b3acd4" stroke="#b3acd4" stroke-width="1.51"/><path d="M472,136L299,225L485,265Z" fill="#d6d6e9" stroke="#d6d6e9" stroke-width="1.51"/><path d="M295,146L299,225L472,136Z" fill="#dfdeed" stroke="#dfdeed" stroke-width="1.51"/><path d="M1351,599L1147,479L1195,671Z" fill="#6b52a4" stroke="#6b52a4" stroke-width="1.51"/><path d="M1351,599L1348,426L1147,479Z" fill="#7359a8" stroke="#7359a8" stroke-width="1.51"/><path d="M1209,258L1377,220L1209,146Z" fill="#9a7fbd" stroke="#9a7fbd" stroke-width="1.51"/><path d="M331,789L516,997L422,737Z" fill="#8f73b6" stroke="#8f73b6" stroke-width="1.51"/><path d="M1099,1167L1181,977L972,964Z" fill="#562e90" stroke="#562e90" stroke-width="1.51"/><path d="M1354,831L1351,599L1195,671Z" fill="#5a3595" stroke="#5a3595" stroke-width="1.51"/><path d="M588,51L578,-41L472,136Z" fill="#d8d8ea" stroke="#d8d8ea" stroke-width="1.51"/><path d="M846,-32L578,-41L772,73Z" fill="#ccc8e2" stroke="#ccc8e2" stroke-width="1.51"/><path d="M336,-121L295,146L472,136Z" fill="#e7e6f1" stroke="#e7e6f1" stroke-width="1.51"/><path d="M299,225L86,444L298,456Z" fill="#cdcce3" stroke="#cdcce3" stroke-width="1.51"/><path d="M603,-263L517,-98L578,-41Z" fill="#dad9eb" stroke="#dad9eb" stroke-width="1.51"/><path d="M1144,-105L972,-91L1032,76Z" fill="#b5a6d2" stroke="#b5a6d2" stroke-width="1.51"/><path d="M972,964L1181,977L1135,852Z" fill="#552c8f" stroke="#552c8f" stroke-width="1.51"/><path d="M1135,852L1354,831L1195,671Z" fill="#572c92" stroke="#572c92" stroke-width="1.51"/><path d="M812,1170L752,925L688,1176Z" fill="#6f50a1" stroke="#6f50a1" stroke-width="1.51"/><path d="M1209,146L1144,-105L1032,76Z" fill="#ae9bcc" stroke="#ae9bcc" stroke-width="1.51"/><path d="M1348,426L1377,220L1209,258Z" fill="#8d71b5" stroke="#8d71b5" stroke-width="1.51"/><path d="M1450,408L1377,220L1348,426Z" fill="#8265ae" stroke="#8265ae" stroke-width="1.51"/><path d="M578,-41L517,-98L472,136Z" fill="#dddded" stroke="#dddded" stroke-width="1.51"/><path d="M441,-196L517,-98L603,-263Z" fill="#dddded" stroke="#dddded" stroke-width="1.51"/><path d="M1181,977L1354,831L1135,852Z" fill="#4e1e89" stroke="#4e1e89" stroke-width="1.51"/><path d="M1351,599L1450,408L1348,426Z" fill="#7154a4" stroke="#7154a4" stroke-width="1.51"/><path d="M1544,644L1450,408L1351,599Z" fill="#64479c" stroke="#64479c" stroke-width="1.51"/><path d="M688,1176L752,925L602,990Z" fill="#7556a4" stroke="#7556a4" stroke-width="1.51"/><path d="M1377,220L1312,65L1209,146Z" fill="#9f82bf" stroke="#9f82bf" stroke-width="1.51"/><path d="M516,997L688,1176L602,990Z" fill="#7c5da9" stroke="#7c5da9" stroke-width="1.51"/><path d="M331,789L276,942L516,997Z" fill="#8f6fb3" stroke="#8f6fb3" stroke-width="1.51"/><path d="M151,814L276,942L331,789Z" fill="#9b7cbb" stroke="#9b7cbb" stroke-width="1.51"/><path d="M432,1092L688,1176L516,997Z" fill="#8163ac" stroke="#8163ac" stroke-width="1.51"/><path d="M276,942L432,1092L516,997Z" fill="#8c6db2" stroke="#8c6db2" stroke-width="1.51"/><path d="M441,-196L336,-121L517,-98Z" fill="#e5e4f1" stroke="#e5e4f1" stroke-width="1.51"/><path d="M1312,65L1144,-105L1209,146Z" fill="#aa90c7" stroke="#aa90c7" stroke-width="1.51"/><path d="M1181,977L1369,912L1354,831Z" fill="#471284" stroke="#471284" stroke-width="1.51"/><path d="M812,1170L956,1181L972,964Z" fill="#61449a" stroke="#61449a" stroke-width="1.51"/><path d="M688,1176L956,1181L812,1170Z" fill="#694b9e" stroke="#694b9e" stroke-width="1.51"/><path d="M73,233L86,444L299,225Z" fill="#dbdaec" stroke="#dbdaec" stroke-width="1.51"/><path d="M279,672L151,814L331,789Z" fill="#a289c3" stroke="#a289c3" stroke-width="1.51"/><path d="M1354,831L1470,779L1351,599Z" fill="#52268d" stroke="#52268d" stroke-width="1.51"/><path d="M1326,1169L1369,912L1181,977Z" fill="#481384" stroke="#481384" stroke-width="1.51"/><path d="M89,639L151,814L279,672Z" fill="#ab96c9" stroke="#ab96c9" stroke-width="1.51"/><path d="M86,444L89,639L298,456Z" fill="#bfbbdb" stroke="#bfbbdb" stroke-width="1.51"/><path d="M295,146L154,129L299,225Z" fill="#e6e5f1" stroke="#e6e5f1" stroke-width="1.51"/><path d="M336,-121L154,129L295,146Z" fill="#edecf4" stroke="#edecf4" stroke-width="1.51"/><path d="M1369,912L1470,779L1354,831Z" fill="#471183" stroke="#471183" stroke-width="1.51"/><path d="M956,1181L1099,1167L972,964Z" fill="#5b3794" stroke="#5b3794" stroke-width="1.51"/><path d="M1343,-211L1133,-190L1144,-105Z" fill="#ad94c9" stroke="#ad94c9" stroke-width="1.51"/><path d="M1377,220L1445,148L1312,65Z" fill="#9b7bba" stroke="#9b7bba" stroke-width="1.51"/><path d="M1546,243L1445,148L1377,220Z" fill="#9272b5" stroke="#9272b5" stroke-width="1.51"/><path d="M1546,243L1377,220L1450,408Z" fill="#8868af" stroke="#8868af" stroke-width="1.51"/><path d="M86,444L-58,493L89,639Z" fill="#c1bddd" stroke="#c1bddd" stroke-width="1.51"/><path d="M154,129L73,233L299,225Z" fill="#e7e6f2" stroke="#e7e6f2" stroke-width="1.51"/><path d="M154,129L-95,61L73,233Z" fill="#f1f0f6" stroke="#f1f0f6" stroke-width="1.51"/><path d="M517,-98L336,-121L472,136Z" fill="#e4e4f0" stroke="#e4e4f0" stroke-width="1.51"/><path d="M578,-41L846,-32L603,-263Z" fill="#d0cee5" stroke="#d0cee5" stroke-width="1.51"/><path d="M1470,779L1544,644L1351,599Z" fill="#562e90" stroke="#562e90" stroke-width="1.51"/><path d="M1144,-105L1133,-190L972,-91Z" fill="#b4a2d0" stroke="#b4a2d0" stroke-width="1.51"/><path d="M1366,-57L1144,-105L1312,65Z" fill="#a98cc5" stroke="#a98cc5" stroke-width="1.51"/><path d="M603,-263L846,-32L855,-292Z" fill="#c9c5e0" stroke="#c9c5e0" stroke-width="1.51"/><path d="M855,-292L846,-32L972,-91Z" fill="#bfbbdc" stroke="#bfbbdc" stroke-width="1.51"/><path d="M1006,-295L855,-292L972,-91Z" fill="#bcb4d8" stroke="#bcb4d8" stroke-width="1.51"/><path d="M1450,-54L1366,-57L1312,65Z" fill="#a484c0" stroke="#a484c0" stroke-width="1.51"/><path d="M1707,467L1546,243L1450,408Z" fill="#7d5ea9" stroke="#7d5ea9" stroke-width="1.51"/><path d="M1450,-54L1312,65L1445,148Z" fill="#a07fbd" stroke="#a07fbd" stroke-width="1.51"/><path d="M276,942L321,1170L432,1092Z" fill="#9171b4" stroke="#9171b4" stroke-width="1.51"/><path d="M432,1092L321,1170L688,1176Z" fill="#8668af" stroke="#8668af" stroke-width="1.51"/><path d="M688,1176L79,1194L956,1181Z" fill="#7e60aa" stroke="#7e60aa" stroke-width="1.51"/><path d="M125,989L321,1170L276,942Z" fill="#9776b7" stroke="#9776b7" stroke-width="1.51"/><path d="M1133,-190L1006,-295L972,-91Z" fill="#b6a8d2" stroke="#b6a8d2" stroke-width="1.51"/><path d="M1343,-211L1006,-295L1133,-190Z" fill="#b099cb" stroke="#b099cb" stroke-width="1.51"/><path d="M-60,819L125,989L151,814Z" fill="#a17fbd" stroke="#a17fbd" stroke-width="1.51"/><path d="M151,814L125,989L276,942Z" fill="#9b79b9" stroke="#9b79b9" stroke-width="1.51"/><path d="M1470,779L1649,852L1544,644Z" fill="#4d1e88" stroke="#4d1e88" stroke-width="1.51"/><path d="M1369,912L1498,944L1470,779Z" fill="#41047e" stroke="#41047e" stroke-width="1.51"/><path d="M1480,1099L1498,944L1369,912Z" fill="#3f007d" stroke="#3f007d" stroke-width="1.51"/><path d="M-105,304L-58,493L86,444Z" fill="#d2cfe5" stroke="#d2cfe5" stroke-width="1.51"/><path d="M89,639L-60,819L151,814Z" fill="#ab91c7" stroke="#ab91c7" stroke-width="1.51"/><path d="M1099,1167L1326,1169L1181,977Z" fill="#4d1f89" stroke="#4d1f89" stroke-width="1.51"/><path d="M956,1181L1326,1169L1099,1167Z" fill="#53288d" stroke="#53288d" stroke-width="1.51"/><path d="M1366,-57L1343,-211L1144,-105Z" fill="#a98cc5" stroke="#a98cc5" stroke-width="1.51"/><path d="M1620,72L1450,-54L1445,148Z" fill="#9e7cbb" stroke="#9e7cbb" stroke-width="1.51"/><path d="M-58,493L-99,628L89,639Z" fill="#bcb5d9" stroke="#bcb5d9" stroke-width="1.51"/><path d="M1450,-54L1343,-211L1366,-57Z" fill="#a383bf" stroke="#a383bf" stroke-width="1.51"/><path d="M163,-204L74,-61L336,-121Z" fill="#f5f3f8" stroke="#f5f3f8" stroke-width="1.51"/><path d="M336,-121L74,-61L154,129Z" fill="#f5f3f9" stroke="#f5f3f9" stroke-width="1.51"/><path d="M73,233L-105,304L86,444Z" fill="#ddddec" stroke="#ddddec" stroke-width="1.51"/><path d="M-58,493L-232,488L-99,628Z" fill="#c1bedd" stroke="#c1bedd" stroke-width="1.51"/><path d="M266,-280L336,-121L441,-196Z" fill="#ebebf4" stroke="#ebebf4" stroke-width="1.51"/><path d="M-99,628L-60,819L89,639Z" fill="#b29fce" stroke="#b29fce" stroke-width="1.51"/><path d="M125,989L79,1194L321,1170Z" fill="#9b79b9" stroke="#9b79b9" stroke-width="1.51"/><path d="M1715,577L1707,467L1544,644Z" fill="#62459b" stroke="#62459b" stroke-width="1.51"/><path d="M1326,1169L1480,1099L1369,912Z" fill="#42067f" stroke="#42067f" stroke-width="1.51"/><path d="M-95,61L-105,304L73,233Z" fill="#edecf5" stroke="#edecf5" stroke-width="1.51"/><path d="M1544,644L1707,467L1450,408Z" fill="#6a4c9f" stroke="#6a4c9f" stroke-width="1.51"/><path d="M1546,243L1620,72L1445,148Z" fill="#9776b7" stroke="#9776b7" stroke-width="1.51"/><path d="M1715,577L1544,644L1649,852Z" fill="#542b8e" stroke="#542b8e" stroke-width="1.51"/><path d="M1649,852L1470,779L1498,944Z" fill="#430880" stroke="#430880" stroke-width="1.51"/><path d="M1629,941L1649,852L1498,944Z" fill="#3f007d" stroke="#3f007d" stroke-width="1.51"/><path d="M1450,-54L1513,-225L1343,-211Z" fill="#a17fbd" stroke="#a17fbd" stroke-width="1.51"/><path d="M1715,296L1620,72L1546,243Z" fill="#9272b5" stroke="#9272b5" stroke-width="1.51"/><path d="M855,-292L266,-280L603,-263Z" fill="#d9d8ea" stroke="#d9d8ea" stroke-width="1.51"/><path d="M603,-263L266,-280L441,-196Z" fill="#e4e4f1" stroke="#e4e4f1" stroke-width="1.51"/><path d="M266,-280L163,-204L336,-121Z" fill="#f1f0f7" stroke="#f1f0f7" stroke-width="1.51"/><path d="M1707,467L1715,296L1546,243Z" fill="#8263ac" stroke="#8263ac" stroke-width="1.51"/><path d="M1809,406L1715,296L1707,467Z" fill="#7a5ca8" stroke="#7a5ca8" stroke-width="1.51"/><path d="M1480,1099L1629,941L1498,944Z" fill="#3f007d" stroke="#3f007d" stroke-width="1.51"/><path d="M1649,852L1790,612L1715,577Z" fill="#552d8f" stroke="#552d8f" stroke-width="1.51"/><path d="M-33,-105L-95,61L74,-61Z" fill="#fcfbfd" stroke="#fcfbfd" stroke-width="1.51"/><path d="M74,-61L-95,61L154,129Z" fill="#f8f7fa" stroke="#f8f7fa" stroke-width="1.51"/><path d="M-61,1121L79,1194L125,989Z" fill="#9f7dbc" stroke="#9f7dbc" stroke-width="1.51"/><path d="M321,1170L79,1194L688,1176Z" fill="#9070b4" stroke="#9070b4" stroke-width="1.51"/><path d="M-60,819L-114,935L125,989Z" fill="#a17fbd" stroke="#a17fbd" stroke-width="1.51"/><path d="M-228,740L-114,935L-60,819Z" fill="#a788c2" stroke="#a788c2" stroke-width="1.51"/><path d="M-228,740L-60,819L-99,628Z" fill="#af98cb" stroke="#af98cb" stroke-width="1.51"/><path d="M1715,577L1790,612L1707,467Z" fill="#64479c" stroke="#64479c" stroke-width="1.51"/><path d="M1839,798L1790,612L1649,852Z" fill="#4d1e89" stroke="#4d1e89" stroke-width="1.51"/><path d="M163,-204L-33,-105L74,-61Z" fill="#f9f8fb" stroke="#f9f8fb" stroke-width="1.51"/><path d="M-64,-258L-33,-105L163,-204Z" fill="#fbfafc" stroke="#fbfafc" stroke-width="1.51"/><path d="M-105,304L-232,488L-58,493Z" fill="#d0cde4" stroke="#d0cde4" stroke-width="1.51"/><path d="M-262,334L-232,488L-105,304Z" fill="#d7d5e9" stroke="#d7d5e9" stroke-width="1.51"/><path d="M1659,-185L1513,-225L1450,-54Z" fill="#a17fbd" stroke="#a17fbd" stroke-width="1.51"/><path d="M1343,-211L1513,-225L1006,-295Z" fill="#a98bc4" stroke="#a98bc4" stroke-width="1.51"/><path d="M1699,-80L1450,-54L1620,72Z" fill="#a17fbd" stroke="#a17fbd" stroke-width="1.51"/><path d="M1793,-82L1699,-80L1864,47Z" fill="#a17fbd" stroke="#a17fbd" stroke-width="1.51"/><path d="M1790,612L1809,406L1707,467Z" fill="#6c4d9f" stroke="#6c4d9f" stroke-width="1.51"/><path d="M-253,604L-228,740L-99,628Z" fill="#b5a6d2" stroke="#b5a6d2" stroke-width="1.51"/><path d="M-232,488L-253,604L-99,628Z" fill="#bdb8da" stroke="#bdb8da" stroke-width="1.51"/><path d="M-217,1094L-61,1121L-114,935Z" fill="#a17fbd" stroke="#a17fbd" stroke-width="1.51"/><path d="M-114,935L-61,1121L125,989Z" fill="#a17fbd" stroke="#a17fbd" stroke-width="1.51"/><path d="M-232,488L-262,334L-253,604Z" fill="#c9c6e1" stroke="#c9c6e1" stroke-width="1.51"/><path d="M-208,57L-262,334L-105,304Z" fill="#eae9f3" stroke="#eae9f3" stroke-width="1.51"/><path d="M-208,57L-105,304L-95,61Z" fill="#f3f1f7" stroke="#f3f1f7" stroke-width="1.51"/><path d="M1864,47L1620,72L1715,296Z" fill="#9877b8" stroke="#9877b8" stroke-width="1.51"/><path d="M1809,406L1855,318L1715,296Z" fill="#8163ac" stroke="#8163ac" stroke-width="1.51"/><path d="M1790,612L1855,318L1809,406Z" fill="#7253a3" stroke="#7253a3" stroke-width="1.51"/><path d="M1811,911L1839,798L1649,852Z" fill="#440a80" stroke="#440a80" stroke-width="1.51"/><path d="M1790,612L1839,798L1855,318Z" fill="#61439a" stroke="#61439a" stroke-width="1.51"/><path d="M1480,1099L1685,1103L1629,941Z" fill="#3f007d" stroke="#3f007d" stroke-width="1.51"/><path d="M1326,1169L1685,1103L1480,1099Z" fill="#3f007d" stroke="#3f007d" stroke-width="1.51"/><path d="M-260,-92L-208,57L-95,61Z" fill="#fbfafc" stroke="#fbfafc" stroke-width="1.51"/><path d="M1811,911L1649,852L1629,941Z" fill="#3f007d" stroke="#3f007d" stroke-width="1.51"/><path d="M1685,1103L1811,911L1629,941Z" fill="#3f007d" stroke="#3f007d" stroke-width="1.51"/><path d="M1699,-80L1659,-185L1450,-54Z" fill="#a17fbd" stroke="#a17fbd" stroke-width="1.51"/><path d="M1793,-82L1659,-185L1699,-80Z" fill="#a17fbd" stroke="#a17fbd" stroke-width="1.51"/><path d="M-33,-105L-260,-92L-95,61Z" fill="#fcfbfd" stroke="#fcfbfd" stroke-width="1.51"/><path d="M266,-280L-64,-258L163,-204Z" fill="#f7f6fa" stroke="#f7f6fa" stroke-width="1.51"/><path d="M-228,740L-272,931L-114,935Z" fill="#a483bf" stroke="#a483bf" stroke-width="1.51"/><path d="M-253,604L-272,931L-228,740Z" fill="#ac93c8" stroke="#ac93c8" stroke-width="1.51"/><path d="M-262,334L-272,931L-253,604Z" fill="#b8add5" stroke="#b8add5" stroke-width="1.51"/><path d="M1864,47L1699,-80L1620,72Z" fill="#a07ebc" stroke="#a07ebc" stroke-width="1.51"/><path d="M1855,318L1864,47L1715,296Z" fill="#9171b4" stroke="#9171b4" stroke-width="1.51"/><path d="M-61,1121L-217,1094L79,1194Z" fill="#a17fbd" stroke="#a17fbd" stroke-width="1.51"/><path d="M-272,931L-217,1094L-114,935Z" fill="#a17fbd" stroke="#a17fbd" stroke-width="1.51"/><path d="M-262,334L-275,-222L-272,931Z" fill="#dadaeb" stroke="#dadaeb" stroke-width="1.51"/><path d="M-208,57L-260,-92L-262,334Z" fill="#f6f5f9" stroke="#f6f5f9" stroke-width="1.51"/><path d="M-64,-258L-260,-92L-33,-105Z" fill="#fcfbfd" stroke="#fcfbfd" stroke-width="1.51"/><path d="M1685,1103L1872,1100L1811,911Z" fill="#3f007d" stroke="#3f007d" stroke-width="1.51"/><path d="M1811,911L1872,1100L1839,798Z" fill="#3f007d" stroke="#3f007d" stroke-width="1.51"/><path d="M1839,798L1872,1100L1855,318Z" fill="#4f228a" stroke="#4f228a" stroke-width="1.51"/><path d="M1855,318L1872,1100L1864,47Z" fill="#6d4ea0" stroke="#6d4ea0" stroke-width="1.51"/><path d="M1326,1169L1872,1100L1685,1103Z" fill="#3f007d" stroke="#3f007d" stroke-width="1.51"/><path d="M1864,47L1834,-230L1793,-82Z" fill="#a17fbd" stroke="#a17fbd" stroke-width="1.51"/><path d="M1793,-82L1834,-230L1659,-185Z" fill="#a17fbd" stroke="#a17fbd" stroke-width="1.51"/><path d="M1659,-185L1834,-230L1513,-225Z" fill="#a17fbd" stroke="#a17fbd" stroke-width="1.51"/><path d="M1513,-225L1834,-230L1006,-295Z" fill="#a17fbd" stroke="#a17fbd" stroke-width="1.51"/><path d="M-64,-258L-275,-222L-260,-92Z" fill="#fcfbfd" stroke="#fcfbfd" stroke-width="1.51"/><path d="M-260,-92L-275,-222L-262,334Z" fill="#fcfafd" stroke="#fcfafd" stroke-width="1.51"/></svg>